<?xml version="1.0" encoding="UTF-8" standalone="no"?>
<!DOCTYPE svg PUBLIC "-//W3C//DTD SVG 1.1//EN" "http://www.w3.org/Graphics/SVG/1.1/DTD/svg11.dtd">
<!-- Generated by Microsoft Visio, SVG Export mape-k.svg Page-1 -->
<svg xmlns="http://www.w3.org/2000/svg" xmlns:xlink="http://www.w3.org/1999/xlink" xmlns:ev="http://www.w3.org/2001/xml-events"
		xmlns:v="http://schemas.microsoft.com/visio/2003/SVGExtensions/" width="11in" height="8.5in" viewBox="0 0 792 612"
		xml:space="preserve" color-interpolation-filters="sRGB" class="st12">
	<v:documentProperties v:langID="1033" v:viewMarkup="false">
		<v:userDefs>
			<v:ud v:nameU="msvSubprocessMaster" v:prompt="" v:val="VT4(Rectangle)"/>
			<v:ud v:nameU="msvNoAutoConnect" v:val="VT0(1):26"/>
		</v:userDefs>
	</v:documentProperties>

	<style type="text/css">
	<![CDATA[
		.st1 {visibility:visible}
		.st2 {fill:#000000;fill-opacity:0.4;filter:url(#filter_2.6666667461395);stroke:#000000;stroke-opacity:0.4}
		.st3 {fill:#fff2cc;stroke:#c7c8c8;stroke-width:0.25}
		.st4 {fill:none;filter:url(#filter_2.6666667461395);stroke:#000000;stroke-opacity:0.4}
		.st5 {fill:none;stroke:#000000;stroke-width:12}
		.st6 {fill:#ffffff;stroke:#c7c8c8;stroke-width:0.25}
		.st7 {fill:#000000;font-family:Calibri;font-size:1.5em}
		.st8 {fill:#feffff;stroke:#c7c8c8;stroke-width:0.25}
		.st9 {fill:#ffd965;stroke:#c7c8c8;stroke-width:0.25}
		.st10 {fill:#ed7d31;stroke:#c7c8c8;stroke-width:0.25}
		.st11 {fill:none;stroke:none;stroke-width:0.25}
		.st12 {fill:none;fill-rule:evenodd;font-size:12px;overflow:visible;stroke-linecap:square;stroke-miterlimit:3}
	]]>
	</style>

	<defs id="Filters">
		<filter id="filter_2.6666667461395">
			<feGaussianBlur stdDeviation="2.6666667461395"/>
		</filter>
	</defs>
	<g v:mID="0" v:index="1" v:groupContext="foregroundPage">
		<v:userDefs>
			<v:ud v:nameU="msvThemeOrder" v:val="VT0(0):26"/>
		</v:userDefs>
		<title>Page-1</title>
		<v:pageProperties v:drawingScale="1" v:pageScale="1" v:drawingUnits="0" v:shadowOffsetX="9" v:shadowOffsetY="-9"/>
		<v:layer v:name="Container" v:index="0"/>
		<g id="shape2-1" v:mID="2" v:groupContext="shape" transform="translate(238.645,-277.17)">
			<title>Rectangle.2</title>
			<v:userDefs>
				<v:ud v:nameU="visVersion" v:val="VT0(15):26"/>
			</v:userDefs>
			<v:textBlock v:margins="rect(4,4,4,4)"/>
			<g id="shadow2-2" v:groupContext="shadow" v:shadowOffsetX="1.83697E-016" v:shadowOffsetY="-3" v:shadowType="1"
					transform="matrix(1,0,0,1,0,3)" class="st1">
				<rect x="0" y="429.797" width="333.36" height="182.203" class="st2"/>
			</g>
			<rect x="0" y="429.797" width="333.36" height="182.203" class="st3"/>
		</g>
		<g id="shape4-6" v:mID="4" v:groupContext="shape" transform="translate(233.19,-150.24)">
			<title>Rectangle.4</title>
			<v:userDefs>
				<v:ud v:nameU="visVersion" v:val="VT0(15):26"/>
			</v:userDefs>
			<g id="shadow4-7" v:groupContext="shadow" v:shadowOffsetX="2.12132" v:shadowOffsetY="-2.12132" v:shadowType="1"
					transform="matrix(1,0,0,1,2.12132,2.12132)" class="st1">
				<rect x="0" y="550.83" width="333.36" height="61.17" rx="22.5" ry="22.5" class="st2"/>
			</g>
			<rect x="0" y="550.83" width="333.36" height="61.17" rx="22.5" ry="22.5" class="st3"/>
		</g>
		<g id="shape19-11" v:mID="19" v:groupContext="shape" transform="translate(270,-204)">
			<title>Rectangle.19</title>
			<v:userDefs>
				<v:ud v:nameU="visVersion" v:val="VT0(15):26"/>
			</v:userDefs>
			<g id="shadow19-12" v:groupContext="shadow" v:shadowOffsetX="2.12132" v:shadowOffsetY="-2.12132" v:shadowType="1"
					transform="matrix(1,0,0,1,2.12132,2.12132)" class="st1">
				<rect x="0" y="402" width="262.125" height="210" class="st4"/>
			</g>
			<rect x="0" y="402" width="262.125" height="210" class="st5"/>
		</g>
		<g id="shape1-16" v:mID="1" v:groupContext="shape" transform="translate(285.84,-174)">
			<title>Rectangle</title>
			<v:userDefs>
				<v:ud v:nameU="visVersion" v:val="VT0(15):26"/>
			</v:userDefs>
			<g id="shadow1-17" v:groupContext="shadow" v:shadowOffsetX="2.12132" v:shadowOffsetY="-2.12132" v:shadowType="1"
					transform="matrix(1,0,0,1,2.12132,2.12132)" class="st1">
				<rect x="0" y="550.83" width="234" height="61.17" class="st2"/>
			</g>
			<rect x="0" y="550.83" width="234" height="61.17" class="st3"/>
		</g>
		<g id="shape3-21" v:mID="3" v:groupContext="shape" transform="translate(295.74,-180.825)">
			<title>Rectangle.3</title>
			<desc>Sensors</desc>
			<v:userDefs>
				<v:ud v:nameU="visVersion" v:val="VT0(15):26"/>
			</v:userDefs>
			<v:textBlock v:margins="rect(4,4,4,4)"/>
			<v:textRect cx="46.26" cy="596.708" width="92.52" height="30.585"/>
			<g id="shadow3-22" v:groupContext="shadow" v:shadowOffsetX="2.12132" v:shadowOffsetY="-2.12132" v:shadowType="1"
					transform="matrix(1,0,0,1,2.12132,2.12132)" class="st1">
				<rect x="0" y="581.415" width="92.52" height="30.585" class="st2"/>
			</g>
			<rect x="0" y="581.415" width="92.52" height="30.585" class="st6"/>
			<text x="17.99" y="602.11" class="st7" v:langID="1033"><v:paragraph v:horizAlign="1"/><v:tabList/>Sensors</text>		</g>
		<g id="shape5-27" v:mID="5" v:groupContext="shape" transform="translate(411.48,-180.825)">
			<title>Rectangle.5</title>
			<desc>Effectors</desc>
			<v:userDefs>
				<v:ud v:nameU="visVersion" v:val="VT0(15):26"/>
			</v:userDefs>
			<v:textBlock v:margins="rect(4,4,4,4)"/>
			<v:textRect cx="46.26" cy="596.708" width="92.52" height="30.585"/>
			<g id="shadow5-28" v:groupContext="shadow" v:shadowOffsetX="2.12132" v:shadowOffsetY="-2.12132" v:shadowType="1"
					transform="matrix(1,0,0,1,2.12132,2.12132)" class="st1">
				<rect x="0" y="581.415" width="92.52" height="30.585" class="st2"/>
			</g>
			<rect x="0" y="581.415" width="92.52" height="30.585" class="st8"/>
			<text x="13.67" y="602.11" class="st7" v:langID="1033"><v:paragraph v:horizAlign="1"/><v:tabList/>Effectors</text>		</g>
		<g id="shape6-33" v:mID="6" v:groupContext="shape" transform="translate(255.182,-288)">
			<title>Triangle</title>
			<v:userDefs>
				<v:ud v:nameU="visVersion" v:val="VT0(15):26"/>
			</v:userDefs>
			<g id="shadow6-34" v:groupContext="shadow" v:shadowOffsetX="2.12132" v:shadowOffsetY="-2.12132" v:shadowType="1"
					transform="matrix(1,0,0,1,2.12132,2.12132)" class="st1">
				<path d="M137.64 612 L2.15 482.24 L0 612 L137.64 612 Z" class="st2"/>
			</g>
			<path d="M137.64 612 L2.15 482.24 L0 612 L137.64 612 Z" class="st9"/>
		</g>
		<g id="shape8-38" v:mID="8" v:groupContext="shape" transform="translate(392.818,792) rotate(180)">
			<title>Triangle.8</title>
			<v:userDefs>
				<v:ud v:nameU="visVersion" v:val="VT0(15):26"/>
			</v:userDefs>
			<g id="shadow8-39" v:groupContext="shadow" v:shadowOffsetX="2.12132" v:shadowOffsetY="-2.12132" v:shadowType="1"
					transform="matrix(1,0,0,1,-2.12132,-2.12132)" class="st1">
				<path d="M129.76 612 L2.02 489.66 L0 612 L129.76 612 Z" class="st2"/>
			</g>
			<path d="M129.76 612 L2.02 489.66 L0 612 L129.76 612 Z" class="st9"/>
		</g>
		<g id="shape10-43" v:mID="10" v:groupContext="shape" transform="translate(402.36,792) scale(1,-1)">
			<title>Triangle.10</title>
			<v:userDefs>
				<v:ud v:nameU="visVersion" v:val="VT0(15):26"/>
			</v:userDefs>
			<g id="shadow10-44" v:groupContext="shadow" v:shadowOffsetX="1.83697E-016" v:shadowOffsetY="-3" v:shadowType="1"
					transform="matrix(1,0,0,1,0,-3)" class="st1">
				<path d="M129.76 612 L1.76 489.66 L0 612 L129.76 612 Z" class="st2"/>
			</g>
			<path d="M129.76 612 L1.76 489.66 L0 612 L129.76 612 Z" class="st9"/>
		</g>
		<g id="shape9-48" v:mID="9" v:groupContext="shape" transform="translate(550.882,-298.828) scale(-1,1)">
			<title>Triangle.9</title>
			<v:userDefs>
				<v:ud v:nameU="visVersion" v:val="VT0(15):26"/>
			</v:userDefs>
			<g id="shadow9-49" v:groupContext="shadow" v:shadowOffsetX="1.83697E-016" v:shadowOffsetY="-3" v:shadowType="1"
					transform="matrix(1,0,0,1,0,3)" class="st1">
				<path d="M129.76 612 L2.02 489.66 L0 612 L129.76 612 Z" class="st2"/>
			</g>
			<path d="M129.76 612 L2.02 489.66 L0 612 L129.76 612 Z" class="st9"/>
		</g>
		<g id="shape13-53" v:mID="13" v:groupContext="shape" transform="translate(342,-277.17)">
			<title>Rectangle.13</title>
			<desc>Knowledge</desc>
			<v:userDefs>
				<v:ud v:nameU="visVersion" v:val="VT0(15):26"/>
			</v:userDefs>
			<v:textBlock v:margins="rect(4,4,4,4)"/>
			<v:textRect cx="58.5" cy="586.757" width="117" height="50.4865"/>
			<g id="shadow13-54" v:groupContext="shadow" v:shadowOffsetX="2.12132" v:shadowOffsetY="-2.12132" v:shadowType="1"
					transform="matrix(1,0,0,1,2.12132,2.12132)" class="st1">
				<rect x="0" y="561.514" width="117" height="50.4865" rx="13.5" ry="13.5" class="st2"/>
			</g>
			<rect x="0" y="561.514" width="117" height="50.4865" rx="13.5" ry="13.5" class="st10"/>
			<text x="17.93" y="592.16" class="st7" v:langID="1033"><v:paragraph v:horizAlign="1"/><v:tabList/>Knowledge</text>		</g>
		<g id="shape20-59" v:mID="20" v:groupContext="shape" transform="translate(313.808,-151.313)">
			<title>Sheet.20</title>
			<desc>Managed Resource</desc>
			<v:textBlock v:margins="rect(4,4,4,4)"/>
			<v:textRect cx="86.0625" cy="601.313" width="172.13" height="21.375"/>
			<rect x="0" y="590.625" width="172.125" height="21.375" class="st11"/>
			<text x="15.76" y="606.71" class="st7" v:langID="1033"><v:paragraph v:horizAlign="1"/><v:tabList/>Managed Resource</text>		</g>
		<g id="shape21-62" v:mID="21" v:groupContext="shape" transform="translate(414,-392.625)">
			<title>Sheet.21</title>
			<desc>Plan</desc>
			<v:textBlock v:margins="rect(4,4,4,4)"/>
			<v:textRect cx="24.7163" cy="601.313" width="49.44" height="21.375"/>
			<rect x="0" y="590.625" width="49.4325" height="21.375" class="st11"/>
			<text x="8.96" y="606.71" class="st7" v:langID="1033"><v:paragraph v:horizAlign="1"/><v:tabList/>Plan</text>		</g>
		<g id="shape22-65" v:mID="22" v:groupContext="shape" transform="translate(310.645,-389.032)">
			<title>Sheet.22</title>
			<desc>Analyze</desc>
			<v:textBlock v:margins="rect(4,4,4,4)"/>
			<v:textRect cx="38.7281" cy="601.313" width="77.46" height="21.375"/>
			<rect x="0" y="590.625" width="77.4562" height="21.375" class="st11"/>
			<text x="10.31" y="606.71" class="st7" v:langID="1033"><v:paragraph v:horizAlign="1"/><v:tabList/>Analyze</text>		</g>
		<g id="shape23-68" v:mID="23" v:groupContext="shape" transform="translate(261.29,-320.625)">
			<title>Sheet.23</title>
			<desc>Monitor</desc>
			<v:textBlock v:margins="rect(4,4,4,4)"/>
			<v:textRect cx="38.7281" cy="601.313" width="77.46" height="21.375"/>
			<rect x="0" y="590.625" width="77.4562" height="21.375" class="st11"/>
			<text x="8.59" y="606.71" class="st7" v:langID="1033"><v:paragraph v:horizAlign="1"/><v:tabList/>Monitor</text>		</g>
		<g id="shape24-71" v:mID="24" v:groupContext="shape" transform="translate(465.272,-320.625)">
			<title>Sheet.24</title>
			<desc>Execute</desc>
			<v:textBlock v:margins="rect(4,4,4,4)"/>
			<v:textRect cx="38.7281" cy="601.313" width="77.46" height="21.375"/>
			<rect x="0" y="590.625" width="77.4562" height="21.375" class="st11"/>
			<text x="9.93" y="606.71" class="st7" v:langID="1033"><v:paragraph v:horizAlign="1"/><v:tabList/>Execute</text>		</g>
	</g>
</svg>
